# xmcd CD database file generated by LOLA_Freedb v0.9beta0
# 
# Track frame offsets:
#      150
#      14860
#      31286
#      43182
#      69180
# 
# Disc length: 1879 seconds
# 
# Revision: 0 
# Processed by: cddbd v1.5.2PL0 Copyright (c) Steve Scherf et al.
# Submitted via: LOLA_Freedb v0.9beta0
# 
DISCID=3e075505
DTITLE=Daniel T. Coates - So Just Say Yes
DYEAR=1900
DGENRE=
TTITLE0=Daniel T. Coates - So Just Say Yes
TTITLE1=Daniel T. Coates - Our Song Again
TTITLE2=Daniel T. Coates - One Day You´re Knocking At My Door
TTITLE3=Daniel T. Coates - Sag einfach ja
TTITLE4=
EXTD=
EXTT0=
EXTT1=
EXTT2=
EXTT3=
EXTT4=
PLAYORDER=
